<mxfile host="app.diagrams.net" modified="2023-05-28T08:48:51.131Z" agent="Mozilla/5.0 (Macintosh; Intel Mac OS X 10_15_7) AppleWebKit/537.36 (KHTML, like Gecko) Chrome/113.0.0.0 Safari/537.36" etag="jFRTUSnw9QFcI3tQeYpT" version="21.3.3" type="github">
  <diagram name="Page-1" id="6-jWXysLUgUMA5KTSQjJ">
    <mxGraphModel dx="1012" dy="682" grid="1" gridSize="10" guides="1" tooltips="1" connect="1" arrows="1" fold="1" page="1" pageScale="1" pageWidth="850" pageHeight="1100" math="0" shadow="0">
      <root>
        <mxCell id="0" />
        <mxCell id="1" parent="0" />
        <mxCell id="uTir8kQJI2ofQs20XQUx-3" value="" style="edgeStyle=orthogonalEdgeStyle;rounded=0;orthogonalLoop=1;jettySize=auto;html=1;" edge="1" parent="1" source="uTir8kQJI2ofQs20XQUx-1" target="uTir8kQJI2ofQs20XQUx-2">
          <mxGeometry relative="1" as="geometry" />
        </mxCell>
        <mxCell id="uTir8kQJI2ofQs20XQUx-1" value="FE" style="rounded=1;whiteSpace=wrap;html=1;" vertex="1" parent="1">
          <mxGeometry x="130" y="70" width="120" height="60" as="geometry" />
        </mxCell>
        <mxCell id="uTir8kQJI2ofQs20XQUx-6" style="edgeStyle=orthogonalEdgeStyle;rounded=0;orthogonalLoop=1;jettySize=auto;html=1;" edge="1" parent="1" source="uTir8kQJI2ofQs20XQUx-2" target="uTir8kQJI2ofQs20XQUx-4">
          <mxGeometry relative="1" as="geometry" />
        </mxCell>
        <mxCell id="uTir8kQJI2ofQs20XQUx-2" value="Fantasy API" style="rounded=1;whiteSpace=wrap;html=1;" vertex="1" parent="1">
          <mxGeometry x="130" y="210" width="120" height="60" as="geometry" />
        </mxCell>
        <mxCell id="uTir8kQJI2ofQs20XQUx-9" value="" style="edgeStyle=orthogonalEdgeStyle;rounded=0;orthogonalLoop=1;jettySize=auto;html=1;" edge="1" parent="1" source="uTir8kQJI2ofQs20XQUx-4" target="uTir8kQJI2ofQs20XQUx-8">
          <mxGeometry relative="1" as="geometry" />
        </mxCell>
        <mxCell id="uTir8kQJI2ofQs20XQUx-4" value="Naive adjust module" style="rounded=1;whiteSpace=wrap;html=1;" vertex="1" parent="1">
          <mxGeometry x="130" y="350" width="120" height="60" as="geometry" />
        </mxCell>
        <mxCell id="uTir8kQJI2ofQs20XQUx-8" value="Validate rules?" style="rounded=1;whiteSpace=wrap;html=1;" vertex="1" parent="1">
          <mxGeometry x="130" y="490" width="120" height="60" as="geometry" />
        </mxCell>
      </root>
    </mxGraphModel>
  </diagram>
</mxfile>
